<?xml version="1.0" encoding="UTF-8" standalone="no"?>
<!DOCTYPE svg PUBLIC "-//W3C//DTD SVG 1.1//EN"
 "http://www.w3.org/Graphics/SVG/1.1/DTD/svg11.dtd">
<!-- Generated by graphviz version 2.50.0 (0)
 -->
<!-- Pages: 1 -->
<svg width="1245pt" height="720pt"
 viewBox="0.00 0.00 934.00 540.00" xmlns="http://www.w3.org/2000/svg" xmlns:xlink="http://www.w3.org/1999/xlink">
<g id="graph0" class="graph" transform="scale(1.33 1.33) rotate(0) translate(4 536)">
<polygon fill="white" stroke="transparent" points="-4,4 -4,-536 930,-536 930,4 -4,4"/>
<g id="clust5" class="cluster">
<title>cluster_legend</title>
<path fill="#f8f8f8" stroke="#b2bec3" d="M698,-153C698,-153 906,-153 906,-153 912,-153 918,-159 918,-165 918,-165 918,-499 918,-499 918,-505 912,-511 906,-511 906,-511 698,-511 698,-511 692,-511 686,-505 686,-499 686,-499 686,-165 686,-165 686,-159 692,-153 698,-153"/>
<text text-anchor="middle" x="802" y="-498.2" font-family="Helvetica,sans-Serif" font-size="11.00">Legend</text>
</g>
<g id="clust4" class="cluster">
<title>cluster_outputs</title>
<path fill="#f0f4ff" stroke="#6c5ce7" d="M118,-8C118,-8 596,-8 596,-8 602,-8 608,-14 608,-20 608,-20 608,-82 608,-82 608,-88 602,-94 596,-94 596,-94 118,-94 118,-94 112,-94 106,-88 106,-82 106,-82 106,-20 106,-20 106,-14 112,-8 118,-8"/>
<text text-anchor="middle" x="357" y="-80.4" font-family="Helvetica,sans-Serif" font-size="12.00">Output Artifacts</text>
</g>
<g id="clust3" class="cluster">
<title>cluster_wave2</title>
<path fill="#fff0f0" stroke="#e17055" stroke-dasharray="5,2" d="M20,-122C20,-122 336,-122 336,-122 342,-122 348,-128 348,-134 348,-134 348,-235 348,-235 348,-241 342,-247 336,-247 336,-247 20,-247 20,-247 14,-247 8,-241 8,-235 8,-235 8,-134 8,-134 8,-128 14,-122 20,-122"/>
<text text-anchor="middle" x="178" y="-233.4" font-family="Helvetica,sans-Serif" font-size="12.00">Wave 2 — Has Dependencies &#160;(blocked until deps complete)</text>
</g>
<g id="clust2" class="cluster">
<title>cluster_wave1</title>
<path fill="#f0fff0" stroke="#00b894" d="M174,-284C174,-284 646,-284 646,-284 652,-284 658,-290 658,-296 658,-296 658,-385 658,-385 658,-391 652,-397 646,-397 646,-397 174,-397 174,-397 168,-397 162,-391 162,-385 162,-385 162,-296 162,-296 162,-290 168,-284 174,-284"/>
<text text-anchor="middle" x="410" y="-383.4" font-family="Helvetica,sans-Serif" font-size="12.00">Wave 1 — No Dependencies &#160;(run immediately)</text>
</g>
<g id="clust1" class="cluster">
<title>cluster_title</title>
<path fill="#f8f8f8" stroke="#b2bec3" d="M480,-434C480,-434 666,-434 666,-434 672,-434 678,-440 678,-446 678,-446 678,-512 678,-512 678,-518 672,-524 666,-524 666,-524 480,-524 480,-524 474,-524 468,-518 468,-512 468,-512 468,-446 468,-446 468,-440 474,-434 480,-434"/>
<text text-anchor="middle" x="573" y="-505.6" font-family="Helvetica,sans-Serif" font-size="18.00">Pipeline Concept</text>
</g>
<!-- source -->
<g id="node1" class="node">
<title>source</title>
<polygon fill="#ffeaa7" stroke="#d4a017" stroke-width="2" points="452,-487 362,-487 362,-443 458,-443 458,-481 452,-487"/>
<polyline fill="none" stroke="#d4a017" stroke-width="2" points="452,-487 452,-481 "/>
<polyline fill="none" stroke="#d4a017" stroke-width="2" points="458,-481 452,-481 "/>
<text text-anchor="middle" x="410" y="-468.6" font-family="Helvetica,sans-Serif" font-size="13.00">source.MP4</text>
<text text-anchor="middle" x="410" y="-454.6" font-family="Helvetica,sans-Serif" font-size="13.00">(raw footage)</text>
</g>
<!-- proxy&#45;720 -->
<g id="node3" class="node">
<title>proxy&#45;720</title>
<path fill="#dfe6e9" stroke="#4a6fa5" stroke-width="2" d="M306,-368C306,-368 182,-368 182,-368 176,-368 170,-362 170,-356 170,-356 170,-304 170,-304 170,-298 176,-292 182,-292 182,-292 306,-292 306,-292 312,-292 318,-298 318,-304 318,-304 318,-356 318,-356 318,-362 312,-368 306,-368"/>
<text text-anchor="middle" x="244" y="-351.2" font-family="Helvetica,sans-Serif" font-size="11.00">:media/proxy</text>
<text text-anchor="middle" x="244" y="-339.2" font-family="Helvetica,sans-Serif" font-size="11.00">proxy&#45;720</text>
<text text-anchor="middle" x="244" y="-327.2" font-family="Helvetica,sans-Serif" font-size="11.00">─────────</text>
<text text-anchor="middle" x="244" y="-315.2" font-family="Helvetica,sans-Serif" font-size="11.00">opts: {:size 720}</text>
<text text-anchor="middle" x="244" y="-303.2" font-family="Helvetica,sans-Serif" font-size="11.00">status: :open → :completed</text>
</g>
<!-- source&#45;&gt;proxy&#45;720 -->
<g id="edge1" class="edge">
<title>source:center&#45;&gt;proxy&#45;720:center</title>
<path fill="none" stroke="#4a6fa5" stroke-width="2" d="M383.7,-442.93C360.41,-424.27 325.71,-396.47 296.73,-373.25"/>
<polygon fill="#4a6fa5" stroke="#4a6fa5" stroke-width="2" points="298.25,-370.88 290.26,-368.06 294.75,-375.25 298.25,-370.88"/>
<text text-anchor="middle" x="355.5" y="-407.8" font-family="Helvetica,sans-Serif" font-size="9.00">feed</text>
</g>
<!-- extract&#45;audio -->
<g id="node4" class="node">
<title>extract&#45;audio</title>
<path fill="#dfe6e9" stroke="#4a6fa5" stroke-width="2" d="M472,-368C472,-368 348,-368 348,-368 342,-368 336,-362 336,-356 336,-356 336,-304 336,-304 336,-298 342,-292 348,-292 348,-292 472,-292 472,-292 478,-292 484,-298 484,-304 484,-304 484,-356 484,-356 484,-362 478,-368 472,-368"/>
<text text-anchor="middle" x="410" y="-351.2" font-family="Helvetica,sans-Serif" font-size="11.00">:media/extract&#45;audio</text>
<text text-anchor="middle" x="410" y="-339.2" font-family="Helvetica,sans-Serif" font-size="11.00">extract&#45;audio</text>
<text text-anchor="middle" x="410" y="-327.2" font-family="Helvetica,sans-Serif" font-size="11.00">─────────</text>
<text text-anchor="middle" x="410" y="-315.2" font-family="Helvetica,sans-Serif" font-size="11.00">opts: {:encoding &quot;wav&quot;}</text>
<text text-anchor="middle" x="410" y="-303.2" font-family="Helvetica,sans-Serif" font-size="11.00">status: :open → :completed</text>
</g>
<!-- source&#45;&gt;extract&#45;audio -->
<g id="edge2" class="edge">
<title>source:center&#45;&gt;extract&#45;audio:center</title>
<path fill="none" stroke="#4a6fa5" stroke-width="2" d="M410,-442.93C410,-425.05 410,-398.79 410,-376.2"/>
<polygon fill="#4a6fa5" stroke="#4a6fa5" stroke-width="2" points="412.8,-376.06 410,-368.06 407.2,-376.06 412.8,-376.06"/>
<text text-anchor="middle" x="419.5" y="-407.8" font-family="Helvetica,sans-Serif" font-size="9.00">feed</text>
</g>
<!-- copy -->
<g id="node5" class="node">
<title>copy</title>
<path fill="#dfe6e9" stroke="#4a6fa5" stroke-width="2" d="M638,-368C638,-368 514,-368 514,-368 508,-368 502,-362 502,-356 502,-356 502,-304 502,-304 502,-298 508,-292 514,-292 514,-292 638,-292 638,-292 644,-292 650,-298 650,-304 650,-304 650,-356 650,-356 650,-362 644,-368 638,-368"/>
<text text-anchor="middle" x="576" y="-351.2" font-family="Helvetica,sans-Serif" font-size="11.00">:media/copy</text>
<text text-anchor="middle" x="576" y="-339.2" font-family="Helvetica,sans-Serif" font-size="11.00">copy</text>
<text text-anchor="middle" x="576" y="-327.2" font-family="Helvetica,sans-Serif" font-size="11.00">─────────</text>
<text text-anchor="middle" x="576" y="-315.2" font-family="Helvetica,sans-Serif" font-size="11.00">opts: {:dest &quot;/archive&quot;}</text>
<text text-anchor="middle" x="576" y="-303.2" font-family="Helvetica,sans-Serif" font-size="11.00">status: :open → :completed</text>
</g>
<!-- source&#45;&gt;copy -->
<g id="edge3" class="edge">
<title>source:center&#45;&gt;copy:center</title>
<path fill="none" stroke="#4a6fa5" stroke-width="2" d="M436.3,-442.93C459.59,-424.27 494.29,-396.47 523.27,-373.25"/>
<polygon fill="#4a6fa5" stroke="#4a6fa5" stroke-width="2" points="525.25,-375.25 529.74,-368.06 521.75,-370.88 525.25,-375.25"/>
<text text-anchor="middle" x="492.5" y="-407.8" font-family="Helvetica,sans-Serif" font-size="9.00">feed</text>
</g>
<!-- pipeline&#45;label -->
<g id="node2" class="node">
<title>pipeline&#45;label</title>
<path fill="white" stroke="transparent" stroke-width="1.5" d="M657.5,-488C657.5,-488 488.5,-488 488.5,-488 482.5,-488 476.5,-482 476.5,-476 476.5,-476 476.5,-454 476.5,-454 476.5,-448 482.5,-442 488.5,-442 488.5,-442 657.5,-442 657.5,-442 663.5,-442 669.5,-448 669.5,-454 669.5,-454 669.5,-476 669.5,-476 669.5,-482 663.5,-488 657.5,-488"/>
<text text-anchor="middle" x="573" y="-468.8" font-family="Helvetica,sans-Serif" font-size="14.00" fill="#2d3436">Pipeline &#160;(UUID: 03e1...9394)</text>
<text text-anchor="middle" x="573" y="-453.8" font-family="Helvetica,sans-Serif" font-size="14.00" fill="#2d3436">:src &quot;source.MP4&quot;</text>
</g>
<!-- extract&#45;stills -->
<g id="node6" class="node">
<title>extract&#45;stills</title>
<path fill="#fab1a0" stroke="#e17055" stroke-width="2" stroke-dasharray="5,2" d="M141,-218C141,-218 37,-218 37,-218 31,-218 25,-212 25,-206 25,-206 25,-142 25,-142 25,-136 31,-130 37,-130 37,-130 141,-130 141,-130 147,-130 153,-136 153,-142 153,-142 153,-206 153,-206 153,-212 147,-218 141,-218"/>
<text text-anchor="middle" x="89" y="-201.2" font-family="Helvetica,sans-Serif" font-size="11.00">:media/extract&#45;stills</text>
<text text-anchor="middle" x="89" y="-189.2" font-family="Helvetica,sans-Serif" font-size="11.00">extract&#45;stills</text>
<text text-anchor="middle" x="89" y="-177.2" font-family="Helvetica,sans-Serif" font-size="11.00">─────────</text>
<text text-anchor="middle" x="89" y="-165.2" font-family="Helvetica,sans-Serif" font-size="11.00">opts: {:frequency 10}</text>
<text text-anchor="middle" x="89" y="-153.2" font-family="Helvetica,sans-Serif" font-size="11.00">deps: [proxy&#45;720]</text>
<text text-anchor="middle" x="89" y="-141.2" font-family="Helvetica,sans-Serif" font-size="11.00">status: :open &#160;(blocked)</text>
</g>
<!-- proxy&#45;720&#45;&gt;extract&#45;stills -->
<g id="edge4" class="edge">
<title>proxy&#45;720:center&#45;&gt;extract&#45;stills:center</title>
<path fill="none" stroke="#e17055" stroke-width="2" stroke-dasharray="5,2" d="M206.48,-291.72C186.35,-271.72 161.26,-246.8 139.45,-225.12"/>
<polygon fill="#e17055" stroke="#e17055" stroke-width="2" points="139.3,-224.97 133.64,-223.86 132.49,-218.21 138.15,-219.32 139.3,-224.97"/>
<text text-anchor="middle" x="183" y="-257.8" font-family="Helvetica,sans-Serif" font-size="9.00">dep</text>
</g>
<!-- transcribe -->
<g id="node7" class="node">
<title>transcribe</title>
<path fill="#fab1a0" stroke="#e17055" stroke-width="2" stroke-dasharray="5,2" d="M327,-218C327,-218 183,-218 183,-218 177,-218 171,-212 171,-206 171,-206 171,-142 171,-142 171,-136 177,-130 183,-130 183,-130 327,-130 327,-130 333,-130 339,-136 339,-142 339,-142 339,-206 339,-206 339,-212 333,-218 327,-218"/>
<text text-anchor="middle" x="255" y="-201.2" font-family="Helvetica,sans-Serif" font-size="11.00">:media/transcribe</text>
<text text-anchor="middle" x="255" y="-189.2" font-family="Helvetica,sans-Serif" font-size="11.00">transcribe</text>
<text text-anchor="middle" x="255" y="-177.2" font-family="Helvetica,sans-Serif" font-size="11.00">─────────</text>
<text text-anchor="middle" x="255" y="-165.2" font-family="Helvetica,sans-Serif" font-size="11.00">opts: {:model :whisper}</text>
<text text-anchor="middle" x="255" y="-153.2" font-family="Helvetica,sans-Serif" font-size="11.00">deps: [proxy&#45;720, extract&#45;audio]</text>
<text text-anchor="middle" x="255" y="-141.2" font-family="Helvetica,sans-Serif" font-size="11.00">status: :open &#160;(blocked)</text>
</g>
<!-- proxy&#45;720&#45;&gt;transcribe -->
<g id="edge5" class="edge">
<title>proxy&#45;720:center&#45;&gt;transcribe:center</title>
<path fill="none" stroke="#e17055" stroke-width="2" stroke-dasharray="5,2" d="M246.66,-291.72C248.03,-272.59 249.72,-248.94 251.22,-227.95"/>
<polygon fill="#e17055" stroke="#e17055" stroke-width="2" points="251.23,-227.78 248.38,-222.77 251.91,-218.21 254.76,-223.22 251.23,-227.78"/>
<text text-anchor="middle" x="257" y="-257.8" font-family="Helvetica,sans-Serif" font-size="9.00">dep</text>
</g>
<!-- out&#45;proxy -->
<g id="node8" class="node">
<title>out&#45;proxy</title>
<polygon fill="#55efc4" stroke="#00b894" stroke-width="1.5" points="389.5,-59.5 312.5,-59.5 312.5,-21.5 395.5,-21.5 395.5,-53.5 389.5,-59.5"/>
<polyline fill="none" stroke="#00b894" stroke-width="1.5" points="389.5,-59.5 389.5,-53.5 "/>
<polyline fill="none" stroke="#00b894" stroke-width="1.5" points="395.5,-53.5 389.5,-53.5 "/>
<text text-anchor="middle" x="354" y="-43.5" font-family="Helvetica,sans-Serif" font-size="10.00">proxy_720.mov</text>
<text text-anchor="middle" x="354" y="-32.5" font-family="Helvetica,sans-Serif" font-size="10.00">(ProRes 720p)</text>
</g>
<!-- proxy&#45;720&#45;&gt;out&#45;proxy -->
<g id="edge7" class="edge">
<title>proxy&#45;720:center&#45;&gt;out&#45;proxy:center</title>
<path fill="none" stroke="#00b894" d="M312.44,-291.84C328.27,-279.75 343.07,-264.78 352,-247 381.37,-188.54 369.69,-108.39 360.7,-67.62"/>
<polygon fill="#00b894" stroke="#00b894" points="363.42,-66.94 358.9,-59.78 357.96,-68.2 363.42,-66.94"/>
</g>
<!-- extract&#45;audio&#45;&gt;transcribe -->
<g id="edge6" class="edge">
<title>extract&#45;audio:center&#45;&gt;transcribe:center</title>
<path fill="none" stroke="#e17055" stroke-width="2" stroke-dasharray="5,2" d="M372.48,-291.72C352.35,-271.72 327.26,-246.8 305.45,-225.12"/>
<polygon fill="#e17055" stroke="#e17055" stroke-width="2" points="305.3,-224.97 299.64,-223.86 298.49,-218.21 304.15,-219.32 305.3,-224.97"/>
<text text-anchor="middle" x="349" y="-257.8" font-family="Helvetica,sans-Serif" font-size="9.00">dep</text>
</g>
<!-- out&#45;audio -->
<g id="node9" class="node">
<title>out&#45;audio</title>
<polygon fill="#55efc4" stroke="#00b894" stroke-width="1.5" points="470,-54 413.5,-54 413.5,-27 474.5,-27 474.5,-49.5 470,-54"/>
<polyline fill="none" stroke="#00b894" stroke-width="1.5" points="470,-54 470,-49.5 "/>
<polyline fill="none" stroke="#00b894" stroke-width="1.5" points="474.5,-49.5 470,-49.5 "/>
<text text-anchor="middle" x="444" y="-38" font-family="Helvetica,sans-Serif" font-size="10.00">audio.wav</text>
</g>
<!-- extract&#45;audio&#45;&gt;out&#45;audio -->
<g id="edge8" class="edge">
<title>extract&#45;audio:center&#45;&gt;out&#45;audio:center</title>
<path fill="none" stroke="#00b894" d="M414.41,-291.71C421.65,-230.49 435.82,-110.67 441.53,-62.39"/>
<polygon fill="#00b894" stroke="#00b894" points="444.33,-62.52 442.49,-54.24 438.77,-61.86 444.33,-62.52"/>
</g>
<!-- out&#45;copy -->
<g id="node10" class="node">
<title>out&#45;copy</title>
<polygon fill="#55efc4" stroke="#00b894" stroke-width="1.5" points="595,-54 492.5,-54 492.5,-27 599.5,-27 599.5,-49.5 595,-54"/>
<polyline fill="none" stroke="#00b894" stroke-width="1.5" points="595,-54 595,-49.5 "/>
<polyline fill="none" stroke="#00b894" stroke-width="1.5" points="599.5,-49.5 595,-49.5 "/>
<text text-anchor="middle" x="546" y="-38" font-family="Helvetica,sans-Serif" font-size="10.00">/archive/source.MP4</text>
</g>
<!-- copy&#45;&gt;out&#45;copy -->
<g id="edge9" class="edge">
<title>copy:center&#45;&gt;out&#45;copy:center</title>
<path fill="none" stroke="#00b894" d="M572.11,-291.71C565.72,-230.49 553.22,-110.67 548.18,-62.39"/>
<polygon fill="#00b894" stroke="#00b894" points="550.94,-61.91 547.33,-54.24 545.38,-62.49 550.94,-61.91"/>
</g>
<!-- out&#45;stills -->
<g id="node11" class="node">
<title>out&#45;stills</title>
<polygon fill="#a29bfe" stroke="#6c5ce7" stroke-width="1.5" points="191.5,-65 114.5,-65 114.5,-16 197.5,-16 197.5,-59 191.5,-65"/>
<polyline fill="none" stroke="#6c5ce7" stroke-width="1.5" points="191.5,-65 191.5,-59 "/>
<polyline fill="none" stroke="#6c5ce7" stroke-width="1.5" points="197.5,-59 191.5,-59 "/>
<text text-anchor="middle" x="156" y="-49" font-family="Helvetica,sans-Serif" font-size="10.00" fill="white">frame_0001.jpg</text>
<text text-anchor="middle" x="156" y="-38" font-family="Helvetica,sans-Serif" font-size="10.00" fill="white">frame_0002.jpg</text>
<text text-anchor="middle" x="156" y="-27" font-family="Helvetica,sans-Serif" font-size="10.00" fill="white">...</text>
</g>
<!-- extract&#45;stills&#45;&gt;out&#45;stills -->
<g id="edge10" class="edge">
<title>extract&#45;stills:center&#45;&gt;out&#45;stills:center</title>
<path fill="none" stroke="#6c5ce7" d="M110.94,-129.94C120.47,-111.23 131.42,-89.73 140.15,-72.62"/>
<polygon fill="#6c5ce7" stroke="#6c5ce7" points="142.85,-73.48 143.98,-65.09 137.86,-70.94 142.85,-73.48"/>
</g>
<!-- out&#45;transcript -->
<g id="node12" class="node">
<title>out&#45;transcript</title>
<polygon fill="#a29bfe" stroke="#6c5ce7" stroke-width="1.5" points="288,-59.5 216,-59.5 216,-21.5 294,-21.5 294,-53.5 288,-59.5"/>
<polyline fill="none" stroke="#6c5ce7" stroke-width="1.5" points="288,-59.5 288,-53.5 "/>
<polyline fill="none" stroke="#6c5ce7" stroke-width="1.5" points="294,-53.5 288,-53.5 "/>
<text text-anchor="middle" x="255" y="-43.5" font-family="Helvetica,sans-Serif" font-size="10.00" fill="white">transcript.json</text>
<text text-anchor="middle" x="255" y="-32.5" font-family="Helvetica,sans-Serif" font-size="10.00" fill="white">(Whisper)</text>
</g>
<!-- transcribe&#45;&gt;out&#45;transcript -->
<g id="edge11" class="edge">
<title>transcribe:center&#45;&gt;out&#45;transcript:center</title>
<path fill="none" stroke="#6c5ce7" d="M255,-129.94C255,-109.47 255,-85.66 255,-67.9"/>
<polygon fill="#6c5ce7" stroke="#6c5ce7" points="257.8,-67.71 255,-59.71 252.2,-67.71 257.8,-67.71"/>
</g>
<!-- leg&#45;ready -->
<g id="node13" class="node">
<title>leg&#45;ready</title>
<path fill="#dfe6e9" stroke="#4a6fa5" stroke-width="2" d="M898,-483C898,-483 822,-483 822,-483 816,-483 810,-477 810,-471 810,-471 810,-459 810,-459 810,-453 816,-447 822,-447 822,-447 898,-447 898,-447 904,-447 910,-453 910,-459 910,-459 910,-471 910,-471 910,-477 904,-483 898,-483"/>
<text text-anchor="middle" x="860" y="-467.8" font-family="Helvetica,sans-Serif" font-size="9.00">Ready</text>
<text text-anchor="middle" x="860" y="-457.8" font-family="Helvetica,sans-Serif" font-size="9.00">(no deps / deps met)</text>
</g>
<!-- leg&#45;blocked -->
<g id="node14" class="node">
<title>leg&#45;blocked</title>
<path fill="#fab1a0" stroke="#e17055" stroke-width="2" stroke-dasharray="5,2" d="M891.5,-348C891.5,-348 828.5,-348 828.5,-348 822.5,-348 816.5,-342 816.5,-336 816.5,-336 816.5,-324 816.5,-324 816.5,-318 822.5,-312 828.5,-312 828.5,-312 891.5,-312 891.5,-312 897.5,-312 903.5,-318 903.5,-324 903.5,-324 903.5,-336 903.5,-336 903.5,-342 897.5,-348 891.5,-348"/>
<text text-anchor="middle" x="860" y="-332.8" font-family="Helvetica,sans-Serif" font-size="9.00">Blocked</text>
<text text-anchor="middle" x="860" y="-322.8" font-family="Helvetica,sans-Serif" font-size="9.00">(waiting on deps)</text>
</g>
<!-- leg&#45;ready&#45;&gt;leg&#45;blocked -->
<!-- leg&#45;output -->
<g id="node15" class="node">
<title>leg&#45;output</title>
<polygon fill="#55efc4" stroke="#00b894" stroke-width="1.5" points="892.17,-187 823.5,-187 823.5,-161 896.5,-161 896.5,-182.67 892.17,-187"/>
<polyline fill="none" stroke="#00b894" stroke-width="1.5" points="892.17,-187 892.17,-182.67 "/>
<polyline fill="none" stroke="#00b894" stroke-width="1.5" points="896.5,-182.67 892.17,-182.67 "/>
<text text-anchor="middle" x="860" y="-171.8" font-family="Helvetica,sans-Serif" font-size="9.00">Output artifact</text>
</g>
<!-- leg&#45;blocked&#45;&gt;leg&#45;output -->
<!-- leg&#45;dep -->
<g id="node16" class="node">
<title>leg&#45;dep</title>
<path fill="white" stroke="transparent" stroke-width="1.5" d="M780,-483C780,-483 706,-483 706,-483 700,-483 694,-477 694,-471 694,-471 694,-459 694,-459 694,-453 700,-447 706,-447 706,-447 780,-447 780,-447 786,-447 792,-453 792,-459 792,-459 792,-471 792,-471 792,-477 786,-483 780,-483"/>
<text text-anchor="middle" x="743" y="-467.8" font-family="Helvetica,sans-Serif" font-size="9.00" fill="#e17055">Dependency edge</text>
<text text-anchor="middle" x="743" y="-457.8" font-family="Helvetica,sans-Serif" font-size="9.00" fill="#e17055">(must complete first)</text>
</g>
</g>
</svg>
